<svg version="1.2" xmlns="http://www.w3.org/2000/svg" viewBox="0 0 2200 400" width="2200" height="400">
	<style>
		.s0 { fill: #000000 } 
		.s1 { fill: #ffffff } 
	</style>
	<path id="Shape 4" fill-rule="evenodd" class="s0" d="m-4.55 200l114.78 6.35 30.62-3.87 36.7 1.38 30.9-1.93 23.45 5.24 14.07 5.52 39.46-9.38 68.43 1.11 51.04 1.37 32.28-7.44 27.32-7.45 152.02 3.31 150.37 12.69 78.64-24.83 155.89-2.21 76.98-3.31 58.49 9.93 161.41 28.14 96.57 3.04 60.7 3.59 77.53-8.01 31.73-13.24 47.73-4.69 61.25 1.38 49.39 11.04 86.36 5.24c2.76 0 76.43-2.48 76.43-2.48l23.45-3.32 7.17-7.17 50.22-8 38.63 1.1 40.83 6.9 19.04-3.59 40.83-7.17 14.63-3.03 17.66 3.86 10.21 3.86 12.69 2.21h11.59l15.17 0.27 9.11-1.38 2.78-0.82 5.22-1.66 9.43 217.36-2220.56-3.78z"/>
	<path id="Shape 3" fill-rule="evenodd" class="s1" d="m-0.31 186.01l20-8 17.1 7.73 4.83-1.24 2.35 1.24 1.51-0.55 3.31 2.34 3.31-0.96 9.11 4.13 7.59 2.62 4.55 2.76 3.86-1.24 3.17 1.52 6.76-0.69 3.45 0.55 3.04-0.83 2.62 1.8 1.93-0.42 3.03 0.97h3.45l4.83 1.26h11.86 8.14l8.97 2.19 6.62-1.38 9.79-0.81 6.21 1.91 7.31 0.69 7.31-0.14 6.76-1.65 7.73-1.52 5.24 2.21 5.1-2.62 6.35 1.12 5.79-0.71 8.97 3.31 9.24 3.04 7.45 2.48 5.24 0.55 3.17-1.93 2.49 3.45 5.93 1.1 5.52-0.96 2.62-1.38 2.34-0.69 6.35-1.38 5.24-1.11 3.59-4.41 5.51 0.28 7.73 0.55 6.48-2.19 2.76-1.12 3.73 1.93 4.55-0.81 2.07-2.5 8.41 0.13 2.48 2.37h15.45 5.94l5.51 1.91 7.18-0.27 2.89 1.79 3.04-0.14 3.58-0.14 4.14 1.93 8.14 0.56 5.66-3.45 4.14-1.11 7.17 0.97 8.14-0.97 9.38-1.08h8.14l7.86-1.54 3.72-1.38 7.87-0.82 6.89-6.21 5.66-0.97 8.14-4.27 6.21-0.69 6.48-3.18 8.14 0.42 4.41-1.66 5.38-0.55 4.55-2.21 7.45-1.24 5.38 0.14 0.97-2.48 4 2.48 6.34-1.52 6.21-2.07 4.28 2.35 4.96-0.28 1.8 0.14 6.2-2.9 6.21-0.69 2.48-0.82 13.11 8.82 5.79-1.37 6.76 2.34 9.24 0.14 11.59-0.69 8.55 3.58 13.25 3.04 9.79 1.93 12.14-2.62 10.76-2.9 10.35 0.97 9.79 2.07 2.48 2.48 3.18-2.62 3.31 0.97 3.44-0.14 5.52 0.69 3.86 2.89 10.63 2.76 6.48 1.24 12.83-0.69 1.1-2.34 8.28 2.21 7.03 0.69 6.63 0.96 4.27 1.52 2.9-1.66 2.48 1.38 3.86 0.14 6.49 0.42 7.72-2.49 8.55 1.93 8.97 0.28 3.31-4 8.28-2.76 4.83-0.55 4.13-1.66 3.59 0.28 3.59-1.52 13.1-6.48 9.24-0.55 14.49-3.87 5.79 2.21 3.86-2.21 5.66 1.94 5.1-3.04 11.04 2.07 4.41-3.45 7.32 1.66 2.62-0.97 8.96 0.83 13.38 0.83 2.26-2 7.73 1.77 8.04-1.29 10.62-2.89 9.17-3.22 7.72-1.61 3.87 4.67 5.31 2.09 4.5-1.45 2.09-1.29 11.91 0.97 5.31-1.77 6.27 1.61 6.92-1.93 8.21 0.96 6.27 1.45 5.15-2.41 9.17-0.17 3.06-3.37h17.7l5.15 4.5 9.97 0.48 11.75-2.09 7.75-3.06 5.28-0.8 10.46 1.93 5.63 2.09 2.25 2.58 4.83-1.13 3.38 2.58 5.31 0.8 10.14 2.57 4.82-0.32 15.29-0.64 11.42-0.16 6.12-2.42 7.08 1.77 4.82-0.64 6.76 4.18 12.87 7.24 11.59-0.8 14.32 3.86 6.92-0.48 6.27 3.06 4.67-1.93 4.82 2.89 5.47-0.96 9.82 2.57 7.4 3.54 5.79 2.74 12.55 3.05 13.84 2.9 9.17-1.29 11.1-0.48 2.58 2.41 12.71 0.16 14.96 2.26 13.36-0.17 10.78-0.16 7.56 3.54 7.72 0.97 3.54-2.09 10.3 2.09 8.85-1.13 3.86 1.45 9.65-0.96 6.92 1.77 9.98-1.13 4.99 1.29 7.88-5.15 9.17-3.38 9.98 4.99 11.26 2.25 14.96-4.02 1.77-5.8 7.24-1.28 9.17-0.9h5.8l6.43-2.32 9.5-1.13 3.21-3.38 8.21-0.32 4.34 2.25 5.8-3.05 6.27-1.93 3.38-4.99 11.42-3.22 7.08-0.16h6.12l6.75 1.61 9.18-0.16 11.26-4.99 11.1-0.8 10.78-2.1 6.11 1.93 8.21 3.06 4.18 1.93 8.53 3.38 5.95 4.35 8.21 1.6 2.9 2.42 5.95-3.06 7.56 2.58 7.4 0.48 13.52-2.25 3.86-1.77 12.07 3.54 6.11 2.73 7.08-2.25 12.23-1.77 10.46-1.93 14.32 1.61 10.13 2.89 10.95-0.96 8.36 0.64 7.24-4.34 10.14 1.28 8.85 3.54 6.76 1.13 6.59 2.9 8.85 4.66 8.53 1.93 12.55-3.22 8.69-4.34 17.38-2.9 5.95-4.02 23.81-1.61 11.75 2.09 10.29-0.64 16.42-1.13 19.63-0.16 15.12 1.61 7.72 4.51c1.61 0.16 15.29 0.16 15.29 0.16l10.78-3.7 11.74-0.16c0 0 11.59-0.81 13.52-1.93 1.93-1.13 15.45-3.54 15.45-3.54l9.01-2.58 13.83 2.9 9.5 3.7 5.79 3.06 13.51 1.77 14.81 0.64 11.74-1.61 8.85-2.09 1.45 4.99-12.71 1.45-12.71 1.19-12.39 1.06-10.62 0.8-5.63-3.38-8.85-2.09-8.53-3.22h-6.43l-2.1-1.61-3.05 1.45-3.86-2.89-4.19 1.12h-5.95l-11.75 3.06-5.15 3.38-3.21 3.54-7.4-2.41-7.57 1.19-5.31 1.38-6.75-1.38-2.9 2.18-6.28 1.29-10.61-1.61-14-1.86h-11.27l-5.95-1.52-10.46-1.12-6.92-1.77-2.89-0.81-8.21 0.97-6.11 4.25h-9.66-6.27l-18.34 2.02-9.17 1.29-12.39 2.41-0.33 5.15-8.2 0.81-2.25 2.73-6.28 2.9-6.6 1.12-3.37 3.71-6.76-0.17-4.67 0.17-4.99 1.12-4.18 1.93-5.95-0.64-1.45 2.25-8.05-1.29-3.86 3.7-6.59-1.28-3.38 2.25-5.15-0.32-3.54-2.58-7.08 0.49-4.67 0.64-1.77 2.41-8.69 0.49-8.36-1.45-6.44-4.18-9.01-2.26-10.3-1.93-10.78 1.29-12.06-3.54-13.84-2.58c-1.61-0.64-9.17-2.73-9.17-2.73-1.77-0.16-14.48 2.25-14.48 2.25l-8.53 3.38-10.46-0.48-11.58-4.19-4.51 2.1-4.83-0.97-8.68-2.25-9.66-3.54-8.69-2.9-10.45 0.65-2.58 2.09-11.74-2.25-7.57-1.29-2.25 1.93-10.3-3.86c0 0-10.62 1.12-13.51 0.8-2.9-0.32-12.39-0.96-12.39-0.96l-14.64-0.16-2.9 4.98-7.08 3.06-2.41 0.32-4.67 0.16-5.15 1.77-4.34-0.16-2.09 3.38-9.82 4.67-3.38 0.32-2.57-0.64-2.74 0.8-3.86-1.13-2.89 1.45h-3.7l-3.54 3.86-5.47 0.81-4.35-1.13-5.95-0.8-1.77 1.12-3.54-2.09-9.66 4.35-2.73-3.54-4.83 2.57-7.4 0.48-6.92-0.16-9.33-0.64-4.34 1.29c0 0-3.38 0-5.64-0.81-2.25-0.8-9.49-0.32-9.49-0.32 0 0-7.4 0.16-9.33-0.16-1.93-0.32-8.05 1.61-8.05 1.61l-3.7 2.41-7.24 1.29-7.24 3.38-4.5 0.32-2.74-3.38-2.09-1.77-8.53-0.32-4.82-1.45-3.06 1.29-6.6 0.32-4.82 1.45-7.41 0.32-4.02 2.25-7.72 1.61-4.51-1.45-7.72-0.32-4.67-0.8-5.79-2.26h-2.73l-6.44-0.32-6.6-2.41-4.66-1.29-8.21 1.77-3.7 1.29-8.04-0.16-7.73-1.93-5.63-1.29-9.01-2.25-6.43-0.81-3.7 1.61-3.06-2.41-5.31 0.64-7.4 1.13c-1.61-0.32-4.51-1.29-7.24-1.93-2.74-0.65-7.89-2.26-7.89-2.26l-5.47 0.49-5.95-2.74-7.24-0.32-5.63-1.13-6.12-0.48-4.02-1.93-4.34 0.64-2.9-0.64-7.72 0.16-4.99-0.32-1.45 2.09-6.92-0.16-4.98-2.25-5.48-6.76-6.27-4.02-8.69-5.47-9.49-4.51-9.33-2.57h-7.41l-10.78-2.09-8.84-1.45-6.76-1.61-5.31 0.8-6.92-2.41-3.22 2.74-3.06 1.6-1.28 3.22-5.47 2.74-4.35 1.61-3.54-0.97-4.02 2.09c0 0-5.31 1.68-7.4 1.68-2.09 0-12.39-1.84-12.39-1.84l-7.4-0.8-11.26-0.49-7.89-0.8-8.53-2.25-4.66 1.45-19.63-0.97-8.21-2.57-4.99-1.13-7.56-2.57-0.64 4.98-9.82-0.8-10.13-2.58-4.19-1.44-5.31 1.93-8.52 1.61-3.06 1.77-4.99 1.28-5.47-0.48-3.06 1.13-9.17-2.9-4.98-2.25-4.67 0.16-6.6 0.32-4.18 2.25-4.02 3.7-4.83 3.29-10.3 0.9-11.74-0.9-4.99 3.31-8.21 1.93-2.57-0.64-6.92 3.86-10.94 0.64-3.38 3.54-7.08 3.86-12.71 2.26-11.42-0.49-9.66-1.12-5.95-0.49-9.49 3.87-9.18 1.77-12.22 0.8-9.5 0.64-3.05-3.05-7.57-1.45-6.43-4.18-5.15-3.22-10.14-1.93-4.82-2.09-4.99-0.17-5.31-1.44-3.86-0.65-5.8 0.81-8.84 1.77-5.15 0.96h-8.69l-12.71-3.54-6.44-0.96-4.99 2.89-11.1 1.29-8.37 1.93-9.33-1.45-9.97-2.09-6.28-3.54-5.47 3.38-9.17 1.29h-2.9l-11.26 0.48-12.39-1.77-7.72-0.48-4.99-3.06-8.37-2.57c-1.6-0.9-10.13-3.7-10.13-3.7l-12.87 0.96-5.31 3.22-9.17 3.22-4.51 3.38-10.94 2.89-20.92 0.81-6.43-0.32-6.44 1.28-8.69-2.41-12.39 0.96-11.1-0.64-4.18 0.48-8.05-0.32-11.9-1.12-10.14-1.61-5.31-2.42-8.04-0.8h-7.41l-5.14 2.73-7.25 0.49c-1.6-0.49-11.9 1.77-11.9 1.77l-7.24 1.44-6.12 1.77-8.2 2.58-9.17 0.64-4.99 1.13-8.53-1.13-3.38-4.99-7.4-2.57c-1.61-0.32-12.07-3.38-12.07-3.38l-5.31 1.45h-12.06-12.07l-17.38 0.32-10.29-0.8-10.14-0.65-3.38 3.06-11.26 2.9-0.97 3.37-7.72 3.54-6.44 1.61-9.01 3.06-11.42-0.8c0 0-5.31-0.16-7.72 0-2.42 0.16-19.63-1.77-19.63-1.77l-5.47 3.38-9.66 0.64-7.88-1.61-11.59-3.38-7.72-1.77-6.28-2.09-8.36-1.29-5.47-0.64-3.54 1.12z"/>
	<g id="Layer 1">
	</g>
</svg>